<?xml version="1.0" encoding="UTF-8"?>
<!-- Generator: Adobe Illustrator 23.0.1, SVG Export Plug-In . SVG Version: 6.00 Build 0)  -->
<svg xmlns="http://www.w3.org/2000/svg" xmlns:xlink="http://www.w3.org/1999/xlink" id="Layer_1" x="0px" y="0px" viewBox="0 0 200.33 12.009" style="enable-background:new 0 0 200.33 12.009;" xml:space="preserve">
<style type="text/css">
	.st0{fill:#FFD200;}
</style>
<g>
	<path class="st0" d="M0.486,0.515h7.337v1.348H1.976v3.543h5.174v1.254H1.976v4.829H0.486V0.515z"></path>
	<path class="st0" d="M13.057,7.429V0.515h1.489v6.914c0,2.007,1.254,2.963,2.9,2.963c1.662,0,2.9-0.956,2.9-2.963V0.515h1.489   v6.914c0,2.869-1.897,4.28-4.39,4.28C14.97,11.709,13.057,10.298,13.057,7.429z"></path>
	<path class="st0" d="M28.074,0.515h7.369v1.348h-5.879v3.434h5.268v1.238h-5.268v3.606h5.973v1.349h-7.463V0.515z"></path>
	<path class="st0" d="M41.507,0.515h1.489v9.61h5.895v1.364h-7.384V0.515z"></path>
	<path class="st0" d="M54.392,0.515h1.489v10.975h-1.489V0.515z"></path>
	<path class="st0" d="M62.543,0.515h1.458l5.785,8.623h0.016V0.515h1.427v10.975h-1.474l-5.769-8.607H63.97v8.607h-1.427V0.515z"></path>
	<path class="st0" d="M76.572,6.127V6.096c0-3.449,2.179-5.801,5.691-5.801c1.489,0,2.791,0.454,3.888,1.254l-0.878,1.066   c-0.894-0.674-1.913-1.019-3.01-1.019c-2.665,0-4.155,1.834-4.155,4.499v0.031c0,2.571,1.458,4.28,3.982,4.28   c0.988,0,1.928-0.204,2.571-0.533V7.021h-3.057V5.767h4.468v4.876c-1.144,0.674-2.571,1.05-4.014,1.05   C78.688,11.693,76.572,9.467,76.572,6.127z"></path>
	<path class="st0" d="M97.153,3.509h-3.151V0.515h9.94v2.994h-3.151v7.98h-3.637V3.509z"></path>
	<path class="st0" d="M104.332,6.018V5.986c0-3.559,2.274-5.691,5.707-5.691c3.434,0,5.707,2.132,5.707,5.691v0.031   c0,3.575-2.273,5.691-5.707,5.691C106.606,11.709,104.332,9.592,104.332,6.018z M112.077,6.018V5.986   c0-1.819-0.768-2.838-2.038-2.838c-1.27,0-2.022,1.019-2.022,2.838v0.031c0,1.819,0.737,2.838,2.022,2.838   C111.324,8.855,112.077,7.836,112.077,6.018z"></path>
	<path class="st0" d="M116.998,0.515h3.277l2.415,3.621l2.43-3.621h3.261v10.975h-3.339V5.908h-0.016l-2.336,3.496l-2.336-3.496   h-0.016v5.581h-3.339V0.515z"></path>
	<path class="st0" d="M129.632,6.018V5.986c0-3.559,2.274-5.691,5.707-5.691c3.434,0,5.707,2.132,5.707,5.691v0.031   c0,3.575-2.273,5.691-5.707,5.691C131.905,11.709,129.632,9.592,129.632,6.018z M137.377,6.018V5.986   c0-1.819-0.768-2.838-2.038-2.838s-2.022,1.019-2.022,2.838v0.031c0,1.819,0.737,2.838,2.022,2.838   C136.624,8.855,137.377,7.836,137.377,6.018z"></path>
	<path class="st0" d="M142.297,0.515h5.048c3.606,0,4.766,1.772,4.766,3.7v0.032c0,1.207-0.455,2.32-1.662,2.994l1.772,4.249h-3.794   l-1.191-3.575h-1.302v3.575h-3.637V0.515z M147.346,5.438c0.721,0,1.129-0.329,1.129-1.082V4.325c0-0.753-0.407-1.097-1.129-1.097   h-1.411v2.211H147.346z"></path>
	<path class="st0" d="M153.426,0.515h5.048c3.606,0,4.766,1.772,4.766,3.7v0.032c0,1.207-0.455,2.32-1.662,2.994l1.772,4.249h-3.794   l-1.191-3.575h-1.302v3.575h-3.637V0.515z M158.475,5.438c0.721,0,1.129-0.329,1.129-1.082V4.325c0-0.753-0.407-1.097-1.129-1.097   h-1.411v2.211H158.475z"></path>
	<path class="st0" d="M164.022,6.018V5.986c0-3.559,2.274-5.691,5.707-5.691c3.434,0,5.707,2.132,5.707,5.691v0.031   c0,3.575-2.273,5.691-5.707,5.691C166.296,11.709,164.022,9.592,164.022,6.018z M171.767,6.018V5.986   c0-1.819-0.768-2.838-2.038-2.838s-2.022,1.019-2.022,2.838v0.031c0,1.819,0.737,2.838,2.022,2.838S171.767,7.836,171.767,6.018z"></path>
	<path class="st0" d="M175.293,0.515h3.637l1.113,6.146h0.047l1.097-6.146h3.183l1.097,6.146h0.047l1.129-6.146h3.559l-2.775,10.975   h-3.339l-1.301-6.255h-0.063l-1.317,6.255h-3.339L175.293,0.515z"></path>
	<path class="st0" d="M190.011,10.564l1.552-2.744c1.285,0.706,2.54,1.097,3.574,1.097c0.643,0,0.972-0.204,0.972-0.58   c0-0.345-0.329-0.518-1.223-0.721c-3.136-0.706-4.28-1.678-4.28-3.59c0-2.289,1.74-3.731,4.687-3.731   c1.537,0,3.199,0.407,4.625,1.129l-1.537,2.587c-1.035-0.564-2.132-0.925-3.042-0.925c-0.815,0-1.082,0.251-1.082,0.58   c0,0.36,0.298,0.486,1.191,0.674c3.167,0.658,4.374,1.646,4.374,3.637c0,2.305-1.631,3.731-4.798,3.731   C193.319,11.709,191.579,11.317,190.011,10.564z"></path>
</g>
</svg>
